<svg xmlns="http://www.w3.org/2000/svg" viewBox="0 0 30.19 25.93">
  <g>
    <path d="M12,3.65A8.35,8.35,0,1,1,3.65,12,8.36,8.36,0,0,1,12,3.65M12,2A10,10,0,1,0,22,12,10,10,0,0,0,12,2Z" transform="translate(-2 3.93)"/>
    <path d="M16.7,15.12h0a1.06,1.06,0,0,1-1,.17,1.23,1.23,0,0,1-.48-1.11V9.59a3.33,3.33,0,0,0,0-.61,2.22,2.22,0,0,0-.71-1,3.68,3.68,0,0,0-2.58-.66,4.39,4.39,0,0,0-2.3.62A2.64,2.64,0,0,0,8.41,9.34a1.7,1.7,0,0,0,.08.69,1,1,0,0,0,.27.37,1,1,0,0,0,1.53-.26.61.61,0,0,1,0-.11.92.92,0,0,0-.06-.57c-.09-.21-.27-.37-.37-.58s.08-.49.28-.62a2.62,2.62,0,0,1,1.53-.4,2,2,0,0,1,1.72.78,1.6,1.6,0,0,1,.32,1c0,.42,0,.83,0,1.24a17.74,17.74,0,0,0-2.14.37,8,8,0,0,0-2.66,1.17,3,3,0,0,0-.85,1.06A2,2,0,0,0,8,14.57a1.88,1.88,0,0,0,1.22,1.37,4.39,4.39,0,0,0,2.37.13,4.13,4.13,0,0,0,2-1.34.19.19,0,0,1,.16-.08,1.94,1.94,0,0,0,1.32,1.46,2,2,0,0,0,1.76-.49l.08-.07a4.49,4.49,0,0,0-.26-.44Zm-3-3.24c0,.36,0,.72,0,1.08a1.36,1.36,0,0,0,0,.14,2.06,2.06,0,0,1-.58,1.16,3.71,3.71,0,0,1-1.13.87,2.25,2.25,0,0,1-1.9.13,1.25,1.25,0,0,1-.3-.25,1,1,0,0,1-.14-.17,1.4,1.4,0,0,1-.08-1.37,3.37,3.37,0,0,1,1.26-1.06,6.44,6.44,0,0,1,.65-.33l.06,0,.06,0c.22-.11.41-.14.58-.21a8,8,0,0,1,1.54-.31c0,.12,0,.24,0,.37Z" transform="translate(-2 3.93)"/>
  </g>
  <polygon points="21.27 0 22.37 2.24 24.85 2.6 23.06 4.35 23.48 6.81 21.27 5.65 19.05 6.81 19.48 4.35 17.68 2.6 20.16 2.24 21.27 0"/>
  <polygon points="25.1 10.02 24.64 11.47 25.57 12.66 24.05 12.67 23.2 13.93 22.72 12.49 21.27 12.07 22.49 11.17 22.44 9.65 23.67 10.54 25.1 10.02"/>
  <polygon points="30.19 6.03 28.76 6.54 28.37 8 27.44 6.8 25.93 6.88 26.79 5.63 26.25 4.21 27.7 4.64 28.88 3.69 28.92 5.2 30.19 6.03"/>
</svg>
