<svg xmlns="http://www.w3.org/2000/svg" viewBox="0 0 20 20">
  <g>
    <path class="cls-1" d="M6,12a6,6,0,1,0,6-6A6,6,0,0,0,6,12Zm5.4,1h1.3a9.12,9.12,0,0,1-.6,2.8A6.51,6.51,0,0,1,11.4,13Zm0-2A9.12,9.12,0,0,1,12,8.2a9.12,9.12,0,0,1,.6,2.8ZM9.7,8.7A8.52,8.52,0,0,0,9.4,11H8.1A4.61,4.61,0,0,1,9.7,8.7ZM8.1,13H9.3a16,16,0,0,0,.3,2.3A5.13,5.13,0,0,1,8.1,13Zm6.2,2.3a8.52,8.52,0,0,0,.3-2.3h1.2A3.89,3.89,0,0,1,14.3,15.3ZM15.9,11H14.7c-.1-.8-.2-1.6-.3-2.3A5.13,5.13,0,0,1,15.9,11Z" transform="translate(-2 -2)"/>
    <path class="cls-1" d="M20.5,6.8l1.1-1.1H18V9.4l1.1-1.1A7.79,7.79,0,0,1,20,12a8.6,8.6,0,0,1-1.7,5l1.4,1.4A10.21,10.21,0,0,0,22,12,9.31,9.31,0,0,0,20.5,6.8Z" transform="translate(-2 -2)"/>
    <path class="cls-1" d="M6,18.3V14.6L4.9,15.7A7.79,7.79,0,0,1,4,12,7.91,7.91,0,0,1,5.6,7.2L4.2,5.8A9.57,9.57,0,0,0,2,12a9.31,9.31,0,0,0,1.5,5.2L2.4,18.3Z" transform="translate(-2 -2)"/>
    <path class="cls-1" d="M15.7,19.1A7.79,7.79,0,0,1,12,20a8.14,8.14,0,0,1-4.8-1.6L5.8,19.8A9.77,9.77,0,0,0,12,22a9.31,9.31,0,0,0,5.2-1.5l1.1,1.1V18H14.6Z" transform="translate(-2 -2)"/>
    <path class="cls-1" d="M8.3,4.9A7.79,7.79,0,0,1,12,4a8,8,0,0,1,5,1.8l1.4-1.4A9.74,9.74,0,0,0,12,2,9.31,9.31,0,0,0,6.8,3.5L5.7,2.3V6H9.4Z" transform="translate(-2 -2)"/>
  </g>
</svg>
