<svg xmlns="http://www.w3.org/2000/svg" viewBox="0 0 13.01 18">
  <path d="M19.63,11.94a4.12,4.12,0,0,0-1.41-.61,3.83,3.83,0,0,0,1-.81,3.07,3.07,0,0,0,.45-1.36,2.84,2.84,0,0,0-1-2.48,5.37,5.37,0,0,0-3-.93V3h-1.7V5.72H12.64V3h-1.7V5.72H7.6V7.49h1a1.4,1.4,0,0,1,.95.26c.2.23.24.35.24.79v7a.69.69,0,0,1-.17.51c-.14.13-.29.17-.63.17h-1l-.35,2h3.34V21h1.7V18.28h1.29V21h1.7V18.24c.44,0,.85-.06,1.09-.09a5.65,5.65,0,0,0,2.61-.91,3.41,3.41,0,0,0,1.28-3A2.72,2.72,0,0,0,19.63,11.94Zm-7-1V7.65s.54,0,1.07,0a5.41,5.41,0,0,1,1.7.24A1.47,1.47,0,0,1,16.54,9.2a1.33,1.33,0,0,1-.73,1.29,4.14,4.14,0,0,1-1.76.43C13.44,11,12.64,10.93,12.64,10.93Zm3.81,4.85a5.4,5.4,0,0,1-1.92.46c-.75.06-1.88,0-1.88,0V12.62s1.08-.06,1.92,0a5.44,5.44,0,0,1,1.87.43,1.5,1.5,0,0,1,0,2.72Z" transform="translate(-7.6 -3)"/>
</svg>
