<svg xmlns="http://www.w3.org/2000/svg" viewBox="0 0 20 20">
  <g id="BTC">
    <path d="M14.55,12.78a4,4,0,0,0-1.36-.31c-.61,0-1.4,0-1.4,0v2.65s.82,0,1.37,0a3.92,3.92,0,0,0,1.4-.33,1.09,1.09,0,0,0,0-2Z" transform="translate(-2.58 -2)"/>
    <path d="M12.82,11.24a3,3,0,0,0,1.27-.31,1,1,0,0,0,.53-.94,1.07,1.07,0,0,0-.82-1,3.93,3.93,0,0,0-1.23-.17c-.39,0-.78,0-.78,0v2.38S12.37,11.26,12.82,11.24Z" transform="translate(-2.58 -2)"/>
    <path d="M12.58,2a10,10,0,1,0,10,10A10,10,0,0,0,12.58,2Zm4.07,13.82a4.1,4.1,0,0,1-1.89.66l-.79.07v2H12.73v-2h-.94v2H10.56v-2H8.13l.25-1.48h.74c.25,0,.35,0,.46-.12a.5.5,0,0,0,.13-.37V9.5c0-.32,0-.41-.17-.57a1,1,0,0,0-.69-.19H8.13V7.46h2.43v-2h1.23v2h.94v-2H14v2a3.9,3.9,0,0,1,2.2.67,2.06,2.06,0,0,1,.72,1.8,2.23,2.23,0,0,1-.33,1,2.78,2.78,0,0,1-.71.59,3,3,0,0,1,1,.44,2,2,0,0,1,.71,1.7A2.47,2.47,0,0,1,16.65,15.82Z" transform="translate(-2.58 -2)"/>
  </g>
</svg>
