<?xml version="1.0" encoding="utf-8"?>
<!-- Generator: Adobe Illustrator 21.1.0, SVG Export Plug-In . SVG Version: 6.00 Build 0)  -->
<svg version="1.1" id="Layer_1" xmlns="http://www.w3.org/2000/svg" xmlns:xlink="http://www.w3.org/1999/xlink" x="0px" y="0px"
	 viewBox="0 0 37 34" style="enable-background:new 0 0 37 34;" xml:space="preserve">
<style type="text/css">
	.st0{fill:#CCCCCC;}
	.st1{fill:#533E8B;}
</style>
<g>
	<path class="st0" d="M16.4,29.6c-6.6,0-12-5.4-12-12s5.4-12,12-12v-4c-8.8,0-16,7.2-16,16s7.2,16,16,16s16-7.2,16-16h-4
		C28.3,24.2,23,29.6,16.4,29.6z"/>
	<g>
		<path class="st1" d="M26.5,5.2C23.7,3,20.2,1.6,16.4,1.6v4c2.8,0,5.3,1,7.3,2.5L26.5,5.2z"/>
		<path class="st1" d="M28.1,15.1c0.2,0.8,0.3,1.7,0.3,2.5h4c0-2-0.4-4.1-1.1-5.9L28.1,15.1z"/>
		<path class="st1" d="M36.3,2.1l-1.5-1.4c-0.4-0.4-1-0.4-1.4,0l-5.5,5.8l-2.8,2.9l-7.9,8.3L13,13.2c-0.4-0.4-1-0.4-1.4-0.1
			l-1.5,1.4c-0.4,0.4-0.4,1,0,1.4l7.2,7.8L27.4,13l2.9-3.1l6-6.4C36.7,3.1,36.7,2.5,36.3,2.1z"/>
	</g>
</g>
</svg>
