<svg xmlns="http://www.w3.org/2000/svg" viewBox="0 0 20 20">
  <g>
    <path class="cls-1" d="M21,4H19V2H17V4H7V2H5V4H3A.94.94,0,0,0,2,5V21a.94.94,0,0,0,1,1H21a.94.94,0,0,0,1-1V5A.94.94,0,0,0,21,4ZM20,20H4V8H20Z" transform="translate(-2 -2)"/>
    <rect class="cls-1" x="5" y="13" width="2" height="2"/>
    <rect class="cls-1" x="9" y="13" width="2" height="2"/>
    <rect class="cls-1" x="13" y="13" width="2" height="2"/>
    <rect class="cls-1" x="5" y="9" width="2" height="2"/>
    <rect class="cls-1" x="9" y="9" width="2" height="2"/>
    <rect class="cls-1" x="13" y="9" width="2" height="2"/>
  </g>
</svg>
