<svg xmlns="http://www.w3.org/2000/svg" viewBox="0 0 18.57 20">
  <path d="M19.86,3.43H18.43V5.57a.71.71,0,0,1-.71.71H14.86a.71.71,0,0,1-.71-.71V3.43H9.86V5.57a.71.71,0,0,1-.71.71H6.29a.71.71,0,0,1-.71-.71V3.43H4.14A1.43,1.43,0,0,0,2.71,4.86V20.57A1.43,1.43,0,0,0,4.14,22H19.86a1.43,1.43,0,0,0,1.43-1.43V4.86A1.43,1.43,0,0,0,19.86,3.43Zm0,17.14H4.14V7.71H19.86ZM8.43,4.86H7V2H8.43Zm8.57,0H15.57V2H17ZM9.86,10.57H8.43V9.14H9.86Zm2.86,0H11.29V9.14h1.43Zm2.86,0H14.14V9.14h1.43Zm2.86,0H17V9.14h1.43ZM7,13.43H5.57V12H7Zm2.86,0H8.43V12H9.86Zm2.86,0H11.29V12h1.43Zm2.86,0H14.14V12h1.43Zm2.86,0H17V12h1.43ZM7,16.29H5.57V14.86H7Zm2.86,0H8.43V14.86H9.86Zm2.86,0H11.29V14.86h1.43Zm2.86,0H14.14V14.86h1.43Zm2.86,0H17V14.86h1.43ZM7,19.14H5.57V17.71H7Zm2.86,0H8.43V17.71H9.86Zm2.86,0H11.29V17.71h1.43Zm2.86,0H14.14V17.71h1.43Z" transform="translate(-2.71 -2)"/>
</svg>
