<svg xmlns="http://www.w3.org/2000/svg" viewBox="0 0 18 12.85">
  <path class="cls-1" d="M18.78,7.18a7.61,7.61,0,0,0-4.32-1.6l-.22.25a10.13,10.13,0,0,1,3.84,1.94A12.82,12.82,0,0,0,13.44,6.3a13.05,13.05,0,0,0-3.12,0,1.52,1.52,0,0,0-.26,0,12.09,12.09,0,0,0-3.5,1c-.57.25-.91.43-.91.43a10.12,10.12,0,0,1,4-2l-.15-.19a7.64,7.64,0,0,0-4.32,1.6A20.36,20.36,0,0,0,3,16.1a5.6,5.6,0,0,0,4.7,2.33s.57-.68,1-1.26A4.82,4.82,0,0,1,6,15.35s.15.11.43.26l.06,0,.14.08a9,9,0,0,0,1.13.52,11.74,11.74,0,0,0,2.27.66,10.81,10.81,0,0,0,4,0,11.06,11.06,0,0,0,2.24-.66,8.83,8.83,0,0,0,1.77-.91,4.89,4.89,0,0,1-2.79,1.82l1,1.23A5.65,5.65,0,0,0,21,16.1,20.36,20.36,0,0,0,18.78,7.18ZM9.12,14.66a1.7,1.7,0,0,1,0-3.39A1.62,1.62,0,0,1,10.7,13,1.63,1.63,0,0,1,9.12,14.66Zm5.63,0A1.7,1.7,0,1,1,16.33,13,1.64,1.64,0,0,1,14.75,14.66Z" transform="translate(-3 -5.58)"/>
</svg>
