<svg xmlns="http://www.w3.org/2000/svg" viewBox="0 0 20 20">
  <g>
    <circle cx="4" cy="16" r="2"/>
    <polygon points="0 19 0 20 3 20 2 18 0 19"/>
    <polygon points="5 20 8 20 8 19 6 18 5 20"/>
    <circle cx="16" cy="16" r="2"/>
    <polygon points="12 19 12 20 15 20 14 18 12 19"/>
    <polygon points="18 18 17 20 20 20 20 19 18 18"/>
    <circle cx="10" cy="2" r="2"/>
    <polygon points="8 4 6 5 6 6 9 6 8 4"/>
    <polygon points="11 6 14 6 14 5 12 4 11 6"/>
    <polygon points="14 13.5 11 10.6 11 7 9 7 9 10.6 6.1 13.5 7.5 14.9 10 12.4 12.5 14.9 14 13.5"/>
  </g>
</svg>
