<svg xmlns="http://www.w3.org/2000/svg" viewBox="0 0 20 20">
  <path d="M22,2.93a1.07,1.07,0,0,0-.9-.9L21,2H3L2.93,2a1.07,1.07,0,0,0-.9.9A1.22,1.22,0,0,1,2,3V21a1.2,1.2,0,0,1,0,.12,1.07,1.07,0,0,0,.9.9L3,22h9.63s0-.08,0-.12q0-3.76,0-7.52v-.1H10.16c-.11,0-.11,0-.11-.11,0-.94,0-1.88,0-2.82,0-.09,0-.11.11-.11h2.51s0-.06,0-.09c0-.78,0-1.56,0-2.34A4.26,4.26,0,0,1,13.08,7a3.27,3.27,0,0,1,1.75-1.66A4.12,4.12,0,0,1,16.49,5c.66,0,1.31,0,2,.06l.36,0c.07,0,.09,0,.09.1,0,.39,0,.78,0,1.17s0,.92,0,1.37c0,.08,0,.1-.1.1-.5,0-1,0-1.49,0a3.55,3.55,0,0,0-.68.08.94.94,0,0,0-.76.8,2.81,2.81,0,0,0-.06.52c0,.64,0,1.27,0,1.91,0,0,0,0,0,.07h2.86c.12,0,.12,0,.11.11l-.2,1.5q-.08.63-.16,1.25c0,.16,0,.16-.18.16H15.82v.12q0,3.72,0,7.44c0,.06,0,.12,0,.18H21l.1,0a1.07,1.07,0,0,0,.9-.9.75.75,0,0,1,0-.1V3A1.18,1.18,0,0,1,22,2.93Z" transform="translate(-2 -2)"/>
</svg>
