<?xml version="1.0" encoding="utf-8"?>
<!-- Generator: Adobe Illustrator 21.0.0, SVG Export Plug-In . SVG Version: 6.00 Build 0)  -->
<svg version="1.1" xmlns="http://www.w3.org/2000/svg" xmlns:xlink="http://www.w3.org/1999/xlink" x="0px" y="0px"
	 viewBox="0 0 20 19" style="enable-background:new 0 0 20 19;" xml:space="preserve">
<g>
	<path d="M10,0L7.6,7.2H0l6.1,4.6L3.8,19l6.2-4.4l6.2,4.4l-2.3-7.2L20,7.2h-7.6C12.4,7.2,10,0,10,0z"/>
	<polyline class="svg-fill" points="10,6.5 10.5,7.9 10.9,9.2 14,9.2 12.7,10.2 11.6,11.1 12,12.5 12.5,14 11.1,13 10,12.2 8.8,13 
		7.5,14 8,12.5 8.4,11.1 7.3,10.2 6,9.2 9.1,9.2 9.6,7.8 10,6.5 	" style="fill: #ffffff;"/>
</g>
</svg>
