<svg xmlns="http://www.w3.org/2000/svg" viewBox="0 0 14.29 20">
  <path d="M20.83,7.71a2.86,2.86,0,1,0-4.29,2.46v.43a2.88,2.88,0,0,1-.9,2,2.88,2.88,0,0,1-2,.9,6.08,6.08,0,0,0-2.86.64V7.31A2.85,2.85,0,1,0,8,7.31v9.37a2.88,2.88,0,0,0-1.43,2.46,2.86,2.86,0,1,0,5-1.94c.13-.09.69-.59.84-.67a3.32,3.32,0,0,1,1.34-.24,5.74,5.74,0,0,0,3.93-1.79,6.69,6.69,0,0,0,1.79-4.31h0A2.88,2.88,0,0,0,20.83,7.71ZM9.4,3.14A1.71,1.71,0,1,1,7.69,4.86,1.73,1.73,0,0,1,9.4,3.14Zm0,17.73a1.71,1.71,0,1,1,1.71-1.71A1.73,1.73,0,0,1,9.4,20.87ZM18,9.44a1.71,1.71,0,1,1,1.71-1.71A1.73,1.73,0,0,1,18,9.44Z" transform="translate(-6.54 -2)"/>
</svg>
