<svg xmlns="http://www.w3.org/2000/svg" viewBox="0 0 20 20">
  <path d="M22,12h0v-.9a.6.6,0,0,0-.1-.4.9.9,0,0,0-.1-.5c0-.2-.1-.3-.1-.5a.37.37,0,0,0-.1-.3c-.1-.2-.1-.4-.2-.6h0a10.36,10.36,0,0,0-4-5.2h-.1c-.3-.2-.7-.4-1-.6-.1,0-.1-.1-.2-.1-.4-.2-.8-.3-1.2-.5h-.1l-1.2-.3h-.3A5.7,5.7,0,0,0,12,2H11c-.2,0-.4.1-.7.1H10c-.2.1-.5.2-.7.3H9.2c-.3.1-.5.2-.8.3H8.3a12.81,12.81,0,0,0-2,1.1h0c-.1,0-.1.1-.2.1-.2.2-.4.3-.6.5h0A9.78,9.78,0,0,0,2.3,9.6h0a4.25,4.25,0,0,0-.2,1.1v.1A4.87,4.87,0,0,0,2,12H2v.1A9.94,9.94,0,0,0,12,22a10.07,10.07,0,0,0,10-9.5ZM3.5,9.4c.1,0,.1-.1.2-.2s.3,0,.4.1,0,.3-.1.4c.2,0,.5.2.5.4v.3c0,.4.5.6.8.5.1,0,.2-.1.3-.2a2.14,2.14,0,0,1,2,.4c.1.1.3.2.4.3s.2.3.3.4a2.19,2.19,0,0,0,.5.3c.4.2.7.4,1.1.6a.22.22,0,0,1,.2.2c.1.2,0,.3-.1.5a3.08,3.08,0,0,0-.1,1c0,.3-.1.7-.4.8s-.3,0-.5.1c-.4.2-.1.9-.5,1.1-.2.1-.4.1-.5.2v.3c-.1.2-.3.2-.4.3-.3.2-.2.7-.1,1a1.15,1.15,0,0,1-.1,1,5.51,5.51,0,0,1-1-3.5A3.21,3.21,0,0,0,6.2,14a1,1,0,0,0-.5-.4,1.78,1.78,0,0,1-.7-.8,1.15,1.15,0,0,1,.1-1c.1-.1.1-.1.1-.2s-.2-.2-.4-.3c-.5-.2-.7-1-1.3-1.1H3.2a1.85,1.85,0,0,1,.2-.7A.1.1,0,0,1,3.5,9.4Zm16.8-.8c-.2-.1-.4-.3-.6-.4a.49.49,0,0,0-.7-.1c-.2.1,0,.5.2.5a1.48,1.48,0,0,0,.7.1c.2,0,.5.2.5.4s-.5.4-.7.7c-.1.1-.1.2-.2.3a.63.63,0,0,1-.6,0,1,1,0,0,1-.4-.5c-.2-.3-.3-.6-.5-.9s-.3-.4-.4-.3-.1.2-.1.4a2.65,2.65,0,0,0,1.1,1.8c.1,0,.2.1.3.2.3.2.1.7-.2.9a1.58,1.58,0,0,0-.7.7c-.1.4.1.8.1,1.2,0,.7-.7,1.1-.9,1.8-.1.4-.1.9-.4,1.2s-1.1.1-1.4-.4a9.38,9.38,0,0,1-.6-1.5c-.1-.2-.2-.3-.2-.5a1.42,1.42,0,0,1,.2-.6,1.06,1.06,0,0,0-.1-.8,1.38,1.38,0,0,1-.3-.4c-.1-.2,0-.4,0-.7a.83.83,0,0,0-1-.5c-.4,0-.8.2-1.2,0a1.76,1.76,0,0,1-.5-.4,1.73,1.73,0,0,1-.4-1.7,2.21,2.21,0,0,1,1.1-1.4,3.72,3.72,0,0,1,2.1-.1,7.61,7.61,0,0,0,2.1.3,1.42,1.42,0,0,0,.6-.2c.1-.1.1-.2.2-.2s.2-.1.3-.2a.56.56,0,0,0,0-.9c-.1,0-.1-.1-.2,0s-.2.2-.3.3a.55.55,0,0,1-.5.3c-.2,0-.4-.1-.4-.3a.19.19,0,0,0-.3,0c-.1.1-.2.2-.3.2s-.4-.3-.6-.5-.6-.1-.9.1-.5.4-.7.5a1,1,0,0,1-.9.2c-.4-.2-.6-.5-.4-.8.3,0,.6-.1.9-.1A1,1,0,0,1,14,5c.2,0,.5.1.7.1a.78.78,0,0,0,.8-.2c.2-.2.4-.5.2-.8,0-.1-.1-.2-.3-.2s-.3.4-.3.7h-.4c-.1,0-.3-.2-.2-.3-.2,0-.6,0-.6-.3s.2-.2.3-.3a1.38,1.38,0,0,0,.3-.4A9,9,0,0,1,20.3,8.6ZM6.7,4.8a.76.76,0,0,0,.4-.2l.1-.1A5.55,5.55,0,0,1,8,3.9a.1.1,0,0,1,.1.1c.2.1.3.3.5.5A1,1,0,0,1,9,5a1.41,1.41,0,0,1,.1.9,1.21,1.21,0,0,1-1-.3.92.92,0,0,0-1-.1,1.7,1.7,0,0,0-.1.7l.6-.3v.3c-.7-.1-1.2.6-1.8,1l-.4.4c-.2.3-.2.7-.4.8-.3-.3-.7-.2-1.1-.1H3.8A9,9,0,0,1,6.7,4.8Z" transform="translate(-2 -2)"/>
</svg>
