<svg xmlns="http://www.w3.org/2000/svg" viewBox="0 0 19.51 18">
  <polygon points="7.69 6.8 7.13 8.39 8.25 8.39 8.25 8.39 7.69 6.8"/>
  <path d="M12.51,3.38h0c-5.39,0-9.75,3.44-9.75,7.69,0,2.75,1.83,5.15,4.57,6.52-.15.52-1,3.31-1,3.53,0,0,0,.17.09.23a.29.29,0,0,0,.23,0c.31,0,3.56-2.33,4.12-2.72a12.36,12.36,0,0,0,1.73.12c5.39,0,9.75-3.44,9.75-7.69S17.89,3.38,12.51,3.38ZM7.68,13.22a.56.56,0,0,1-1.13,0V9.87H5.67a.55.55,0,1,1,0-1.1H8.55a.55.55,0,1,1,0,1.1H7.68Zm4.73.45a.86.86,0,0,1-.36.08h0a.46.46,0,0,1-.47-.25l-.28-.73H9.58l-.28.73a.46.46,0,0,1-.47.25.86.86,0,0,1-.36-.08c-.16-.07-.3-.27-.13-.8L9.69,9.33a.78.78,0,0,1,1.5,0l1.35,3.54C12.71,13.4,12.56,13.6,12.41,13.67Zm2.84,0H13.44a.53.53,0,0,1-.54-.52V9.33a.57.57,0,0,1,1.15,0v3.31h1.2a.52.52,0,1,1,0,1Zm4.4-.42a.56.56,0,0,1-1,.26l-1.32-1.75-.2.2v1.23a.56.56,0,0,1-.56.56h0a.56.56,0,0,1-.56-.56V9.33a.56.56,0,0,1,1.13,0v1.21L18.7,9A.44.44,0,0,1,19,8.85a.57.57,0,0,1,.55.52.44.44,0,0,1-.12.34L18.16,11l1.39,1.83A.56.56,0,0,1,19.65,13.25Z" transform="translate(-2.75 -3.38)"/>
</svg>
