<svg id="svg-plane" xmlns="http://www.w3.org/2000/svg" viewBox="0 0 76.97 71.09">
  <g>
    <polygon class="outer" points="76.97 0 19.95 15.2 35.86 31.11 51.06 46.32 76.97 0"/>
    <polygon class="inner" points="76.97 0 31.97 27.22 35.86 31.11 39.74 35 76.97 0"/>
    <polygon points="28.43 39.24 39.74 35 31.97 27.22 28.43 39.24" style="fill: #ccc"/>
    <g>
      <path d="M24.63,41.77,25.92,41l-.49-.87-1.31.76Z" style="fill: #fff"/>
      <path d="M12.69,70.94l.08-1c.87.07,1.78.19,2.69.19h.21v1h-.21C14.51,71.09,13.58,71,12.69,70.94ZM7,69.77l.3-1a21.9,21.9,0,0,0,2.71.65l-.17,1A23.22,23.22,0,0,1,7,69.77ZM1.83,66.94l.7-.72a9.45,9.45,0,0,0,2.2,1.56l-.46.89A10.41,10.41,0,0,1,1.83,66.94ZM0,63.2a5.94,5.94,0,0,1,.35-1.93l.94.33A4.93,4.93,0,0,0,1,63.2a3.37,3.37,0,0,0,.12.89l-1,.26A4.42,4.42,0,0,1,0,63.2Zm1.73-4.57a22.44,22.44,0,0,1,1.81-2.29l.75.67a21.4,21.4,0,0,0-1.73,2.18Zm3.82-4.36c.65-.62,1.36-1.27,2.14-1.93l.65.76c-.76.65-1.46,1.29-2.1,1.89ZM9.9,50.52c.75-.59,1.51-1.17,2.28-1.74l.6.8c-.76.56-1.51,1.14-2.25,1.72Zm4.6-3.42c.8-.56,1.59-1.1,2.36-1.62l.56.83c-.76.51-1.55,1-2.34,1.61Zm4.75-3.19c.87-.56,1.69-1.07,2.42-1.52l.53.85c-.73.45-1.54,1-2.41,1.51Z" style="fill: #fff"/>
      <path d="M18.46,70.79,20,70.65l-.11-1-1.48.14Z" style="fill: #fff"/>
    </g>
  </g>
</svg>
