<svg xmlns="http://www.w3.org/2000/svg" viewBox="0 0 20 20">
  <g>
    <path class="cls-1" d="M12,4a8.27,8.27,0,0,1,5.7,2.3L16,8h5V3L19.1,4.9A9.9,9.9,0,0,0,12,2h0A9.9,9.9,0,0,0,4.9,4.9L6.3,6.3A8.27,8.27,0,0,1,12,4Z" transform="translate(-2 -2)"/>
    <path class="cls-1" d="M12,20a8.27,8.27,0,0,1-5.7-2.3h0L8,16H3v5l1.9-1.9h0A9.9,9.9,0,0,0,12,22a9.9,9.9,0,0,0,7.1-2.9l-1.4-1.4A8.27,8.27,0,0,1,12,20Z" transform="translate(-2 -2)"/>
    <circle class="cls-1" cx="3.5" cy="8.5" r="3.5"/>
    <circle class="cls-1" cx="16.5" cy="11.5" r="3.5"/>
  </g>
</svg>
