<svg id="Layer_1" data-name="Layer 1" xmlns="http://www.w3.org/2000/svg" viewBox="0 0 20 20">
  <title>prototype</title>
  <path class="cls-1" d="M20,18a.9.9,0,0,0-.5.1L15.4,14a3.63,3.63,0,0,0,0-4l2.1-2.1A.75.75,0,0,0,18,8a2,2,0,1,0-2-2,.9.9,0,0,0,.1.5L14,8.6a3.63,3.63,0,0,0-4,0l-4-4V4A2,2,0,1,0,4,6a.9.9,0,0,0,.5-.1l4,4A5,5,0,0,0,8,12a3.61,3.61,0,0,0,.6,2L5.5,17.1A.75.75,0,0,0,5,17a2,2,0,1,0,2,2,.9.9,0,0,0-.1-.5L10,15.4a4.18,4.18,0,0,0,1,.4h0v2.4a1.94,1.94,0,0,0-1,1.7,2,2,0,0,0,4,0,1.94,1.94,0,0,0-1-1.7V15.8h0a3,3,0,0,0,1-.4l4.1,4.1c0,.2-.1.3-.1.5a2,2,0,1,0,2-2Zm-8-4a2,2,0,1,1,2-2A2,2,0,0,1,12,14Z" transform="translate(-2 -2)"/>
</svg>
