<svg id="reddit" data-name="reddit" xmlns="http://www.w3.org/2000/svg" viewBox="0 0 103.63 87.46">
  <path d="M189.45,86.21a9.75,9.75,0,1,1,9.75-9.75A9.76,9.76,0,0,1,189.45,86.21Z" transform="translate(-101.57 -66.71)"/>
  <path d="M119.3,103.49l2.65-2.65a11.94,11.94,0,1,0-14.23,18.88l1.82-3.28Z" transform="translate(-101.57 -66.71)"/>
  <path d="M187.48,103.49l-2.65-2.65a11.94,11.94,0,1,1,14.23,18.88l-1.82-3.28Z" transform="translate(-101.57 -66.71)"/>
  <path d="M153.61,94.59a1.88,1.88,0,0,1-1.77-2.5L160.32,68l20.81,5a1.88,1.88,0,1,1-.87,3.65l-17.52-4.19-7.36,20.9A1.88,1.88,0,0,1,153.61,94.59Z" transform="translate(-101.57 -66.71)"/>
  <path d="M153.3,91.67c-25.68,0-46.56,14-46.56,31.25s20.89,31.25,46.56,31.25,46.56-14,46.56-31.25S179,91.67,153.3,91.67Zm0,58.75c-23.61,0-42.81-12.34-42.81-27.5s19.21-27.5,42.81-27.5,42.81,12.34,42.81,27.5S176.91,150.42,153.3,150.42Z" transform="translate(-101.57 -66.71)"/>
  <path class="cls-1" d="M153.3,95.42c-23.61,0-42.81,12.34-42.81,27.5s19.21,27.5,42.81,27.5,42.81-12.34,42.81-27.5S176.91,95.42,153.3,95.42Zm-22.13,22a7.34,7.34,0,1,1,7.34,7.34A7.34,7.34,0,0,1,131.17,117.4Zm39.42,19.84c-.22.23-5.48,5.58-17.38,5.58s-16.74-5.43-16.94-5.66a1.87,1.87,0,0,1,2.84-2.45c.11.12,4.1,4.36,14.1,4.36,10.17,0,14.63-4.39,14.68-4.44a1.88,1.88,0,0,1,2.7,2.6Zm-1.46-12.51a7.33,7.33,0,1,1,7.33-7.34A7.33,7.33,0,0,1,169.13,124.74Z" transform="translate(-101.57 -66.71)"/>
</svg>
