<svg xmlns="http://www.w3.org/2000/svg" viewBox="0 0 17.97 18">
  <path class="cls-1" d="M20.91,12.56a1.46,1.46,0,0,0-1.84-.92l-1.82.61L16,8.64,17.85,8a1.46,1.46,0,0,0-.92-2.76l-1.82.61L14.48,4a1.46,1.46,0,1,0-2.76.92l.63,1.88L8.59,8.06,8,6.18A1.46,1.46,0,1,0,5.2,7.1L5.83,9,4,9.59a1.46,1.46,0,1,0,.92,2.76l1.82-.61L8,15.36,6.15,16a1.46,1.46,0,1,0,.92,2.76l1.82-.61L9.52,20a1.46,1.46,0,1,0,2.76-.92l-.63-1.88,3.75-1.26L16,17.82a1.46,1.46,0,1,0,2.76-.93L18.17,15,20,14.41A1.46,1.46,0,0,0,20.91,12.56ZM10.73,14.44,9.52,10.82l3.75-1.26,1.21,3.61Z" transform="translate(-3.02 -3)"/>
</svg>
