<svg xmlns="http://www.w3.org/2000/svg" viewBox="0 0 20 20">
  <g>
    <rect class="cls-1" x="10.59" y="10.64" width="2.82" height="2.71" transform="translate(-5.19 2.43) rotate(-18.52)"/>
    <path class="cls-1" d="M21.16,9.25C19.1,2.38,16.12.78,9.25,2.84s-8.48,5-6.41,11.91,5,8.48,11.91,6.41S23.22,16.12,21.16,9.25Zm-3.48,4.46-1.3.43.45,1.34a1,1,0,1,1-2,.66l-.45-1.34-2.67.89L12.2,17a1,1,0,1,1-2,.66l-.45-1.34-1.3.43a1,1,0,0,1-.66-2l1.3-.43-.86-2.57L7,12.25a1,1,0,0,1-.66-2l1.3-.43L7.16,8.51a1,1,0,1,1,2-.66L9.57,9.2l2.67-.89L11.8,7a1,1,0,1,1,2-.66l.45,1.34,1.3-.43a1,1,0,0,1,.66,2l-1.3.43.86,2.57,1.3-.43a1,1,0,0,1,.66,2Z" transform="translate(-2 -2)"/>
  </g>
</svg>
