<svg xmlns="http://www.w3.org/2000/svg" viewBox="0 0 17.67 18">
  <path class="cls-1" d="M18.74,8.43a7.24,7.24,0,0,0-2.55-1.65,4,4,0,0,1,2.46-2.17,16.22,16.22,0,0,0-9.41-1.4A7.6,7.6,0,0,0,4.85,5.83a6.86,6.86,0,0,0,.74,9.74c.45.38,1.45,1,1.47,1A4.12,4.12,0,0,1,4.3,18.7a17.5,17.5,0,0,0,6.51,2.19,13.69,13.69,0,0,0,3.13,0,8,8,0,0,0,4.76-2.34A7.14,7.14,0,0,0,18.74,8.43Zm-1.28,9a6.66,6.66,0,0,1-3.85,1.79,12.2,12.2,0,0,1-2.67,0,12.68,12.68,0,0,1-3.16-.87A4.71,4.71,0,0,0,8.9,16.78a1.24,1.24,0,0,0,0-1A5.25,5.25,0,0,1,9.93,9.74a5.45,5.45,0,0,1,7.62,0A5.49,5.49,0,0,1,17.46,17.48Z" transform="translate(-3.17 -3)"/>
</svg>
