<svg xmlns="http://www.w3.org/2000/svg" viewBox="0 0 20 20">
  <g>
    <path class="cls-1" d="M2,2V12H22V2ZM20,9.1a1.59,1.59,0,0,0-.9.9H4.9A1.35,1.35,0,0,0,4,9.1V4.9A1.35,1.35,0,0,0,4.9,4H19.1a1.59,1.59,0,0,0,.9.9Z" transform="translate(-2 -2)"/>
    <circle class="cls-1" cx="10" cy="5" r="2"/>
    <circle class="cls-1" cx="5" cy="5" r="1"/>
    <circle class="cls-1" cx="15" cy="5" r="1"/>
    <polygon class="cls-1" points="11 14 0 14 0 18 11 18 11 20 14 16 11 12 11 14"/>
    <polygon class="cls-1" points="16 14 16 18 16 20 20 16 16 12 16 14"/>
  </g>
</svg>
