<svg xmlns="http://www.w3.org/2000/svg" viewBox="0 0 301.39 260.4">
  <title>telegram</title>
  <path class="cls-1" d="M374.74,147.19l-267.67,105s-12.67,4.33-11.67,12.33,11.33,11.67,11.33,11.67l67.33,22.67L335.74,196.19s9.33-5.67,9,0c0,0,1.67,1-3.33,5.67s-127,114.33-127,114.33l-.24,2.07,109.91,84.26c18.33,8,25-8.67,25-8.67l47.67-240.33C396.74,137.52,374.74,147.19,374.74,147.19Z" transform="translate(-95.35 -144.29)"/>
  <path class="cls-2" d="M256.25,350.52l-43.51,39.67s-3.4,2.58-7.12,1L214,317.47" transform="translate(-95.35 -144.29)"/>
</svg>
