<svg id="Layer_1" data-name="Layer 1" xmlns="http://www.w3.org/2000/svg" viewBox="0 0 200 162.54">
  <title>twitter</title>
  <path class="cls-1" d="M250,88a82,82,0,0,1-23.57,6.46,41.16,41.16,0,0,0,18-22.7,82.14,82.14,0,0,1-26.06,10,41.07,41.07,0,0,0-69.92,37.43A116.49,116.49,0,0,1,63.92,76.24,41.08,41.08,0,0,0,76.62,131,40.87,40.87,0,0,1,58,125.89c0,.17,0,.34,0,.52a41.06,41.06,0,0,0,32.91,40.23,41.12,41.12,0,0,1-18.53.7,41.07,41.07,0,0,0,38.33,28.5,82.32,82.32,0,0,1-51,17.57,83.26,83.26,0,0,1-9.79-.57,116.14,116.14,0,0,0,62.9,18.44c75.47,0,116.75-62.52,116.75-116.75q0-2.67-.12-5.31A83.37,83.37,0,0,0,250,88Z" transform="translate(-50 -68.73)"/>
</svg>
