<svg xmlns="http://www.w3.org/2000/svg" viewBox="0 0 20 16.25">
  <path d="M22,18.87a1.35,1.35,0,0,1-1.25,1.25H12a1.26,1.26,0,0,1-1.24-1.25H3.25A1.36,1.36,0,0,1,2,17.63c0-3.29,3.75-5,3.75-5a1.54,1.54,0,0,0,0-1.25C4.7,10.6,4.43,10.64,4.5,7.63S6.21,3.88,7.63,3.88s3.05.72,3.13,3.75-.2,3-1.25,3.75a1.54,1.54,0,0,0,0,1.25,7.93,7.93,0,0,1,3,2.61,8.47,8.47,0,0,1,2-1.36,1.54,1.54,0,0,0,0-1.25c-1.05-.77-1.32-.74-1.25-3.75S15,5.12,16.38,5.12s3,.73,3.12,3.75-.2,3-1.25,3.75a1.54,1.54,0,0,0,0,1.25S22,15.58,22,18.87Z" transform="translate(-2 -3.88)"/>
</svg>
