<svg xmlns="http://www.w3.org/2000/svg" viewBox="0 0 20 20">
  <g>
    <circle cx="18.5" cy="1.5" r="1.5"/>
    <circle cx="1.5" cy="18.5" r="1.5"/>
    <path d="M16.2,12l3.9-3.9L15.9,3.9,12,7.8,8.1,3.9,3.9,8.1,7.8,12,3.9,15.9l4.2,4.2L12,16.2l3.9,3.9,4.2-4.2Zm-.9,4.7L14,15.4a3.45,3.45,0,0,1-1.8.5h-.6a4.07,4.07,0,0,1-1.8-.5L8.5,16.7,7.1,15.3,8.6,14a3.45,3.45,0,0,1-.5-1.8h0v-.3h0v-.3h0a4.07,4.07,0,0,1,.5-1.8L7.3,8.7,8.7,7.3,10,8.6a3.45,3.45,0,0,1,1.8-.5h.6a4.07,4.07,0,0,1,1.8.5l1.3-1.3,1.4,1.4L15.4,10a3.45,3.45,0,0,1,.5,1.8h0v.6h0a4.07,4.07,0,0,1-.5,1.8l1.3,1.3Z" transform="translate(-2 -2)"/>
    <circle cx="18.5" cy="18.5" r="1.5"/>
    <circle cx="1.5" cy="1.5" r="1.5"/>
  </g>
</svg>
