<svg id="Layer_1" data-name="Layer 1" xmlns="http://www.w3.org/2000/svg" viewBox="0 0 20 20">
  <title>website</title>
  <g>
    <polygon class="cls-1" points="7.1 16.5 10 15 12.9 16.5 12.4 13.2 14.7 10.9 11.5 10.5 10 7.5 8.5 10.5 5.3 10.9 7.6 13.2 7.1 16.5"/>
    <path class="cls-1" d="M21,2H3A.94.94,0,0,0,2,3V21a.94.94,0,0,0,1,1H21a.94.94,0,0,0,1-1V3A.94.94,0,0,0,21,2ZM15,4a.94.94,0,0,1,1,1,1,1,0,0,1-2,0A.94.94,0,0,1,15,4ZM4,4h8V6H4ZM20,20H4V8H20ZM19,6a.94.94,0,0,1-1-1,1,1,0,0,1,2,0A.94.94,0,0,1,19,6Z" transform="translate(-2 -2)"/>
  </g>
</svg>
