<svg xmlns="http://www.w3.org/2000/svg" viewBox="0 0 21.69 18">
  <g>
    <path class="cls-1" d="M13.46,4.12A9.14,9.14,0,0,0,6,3.54,7.62,7.62,0,0,0,2,6.63a5.79,5.79,0,0,0-.72,4.44,6.8,6.8,0,0,0,2.95,4c-.26.77-.52,1.54-.77,2.31.89-.46,1.77-.94,2.65-1.41a9.83,9.83,0,0,0,3.31.47,5.7,5.7,0,0,1-.23-2.67A5.7,5.7,0,0,1,11,10.55a7.82,7.82,0,0,1,5.87-1.93,6.85,6.85,0,0,0-3.45-4.5Zm-6,3.5A1.11,1.11,0,1,1,6,6.31,1.12,1.12,0,0,1,7.42,7.62Zm5.48-.22A1.11,1.11,0,1,1,11.4,6.32,1.12,1.12,0,0,1,12.89,7.4Z" transform="translate(-1.15 -3)"/>
    <path class="cls-2" d="M22.43,12.68a6,6,0,0,0-2.79-2.84,7.69,7.69,0,0,0-6.89,0,5.73,5.73,0,0,0-3.06,3.76,4.84,4.84,0,0,0,.61,3.58,6.6,6.6,0,0,0,4.49,2.93,8.22,8.22,0,0,0,3.92-.26c.76.3,1.44.77,2.18,1.13q-.28-1-.61-1.9a6.2,6.2,0,0,0,2-2.24,4.86,4.86,0,0,0,.12-4.19Zm-7.4.48A.89.89,0,1,1,13.89,12,.9.9,0,0,1,15,13.15Zm4.33.08a.9.9,0,0,1-1.41.24,1.41,1.41,0,0,1-.31-.66,1,1,0,0,1,.85-.86A.9.9,0,0,1,19.36,13.23Z" transform="translate(-1.15 -3)"/>
  </g>
</svg>
